<svg xmlns="http://www.w3.org/2000/svg" xmlns:xlink="http://www.w3.org/1999/xlink" width="100" height="100" viewBox="0 0 100 100"><g><g transform="translate(50 50) scale(0.69 0.69) rotate(0) translate(-50 -50)" style="fill:#4D4D4D"><svg fill="#4D4D4D" xmlns="http://www.w3.org/2000/svg" xmlns:xlink="http://www.w3.org/1999/xlink" version="1.1" x="0px" y="0px" viewBox="0 0 100 100" enable-background="new 0 0 100 100" xml:space="preserve"><g display="none"><path display="inline" opacity="0.3" fill-rule="evenodd" clip-rule="evenodd" d="M28.922,75.963l0.489,0.338l0.459,0.806   l0.433-0.806l-0.174-2.474l-0.604-1.065l0.317-0.69l0.547-0.289l-0.402-0.805l0.259-0.459l1.236-0.116l0.346-0.605l-0.057-0.834   l0.573-1.237l-0.573-0.805l-0.289-1.814l-0.748-1.467l0.058-0.661l1.813-0.605l0.027-1.295l0.375-0.892l-1.381-1.524l-1.15-0.575   l-0.06-1.497l0.261-1.467l-0.201-1.612l-0.433-1.093l0.346-1.237l-0.231-2.1l-0.372-2.042l0.285-1.784l0.893-1.583l0.864-0.517   l1.065,0.23l1.352,0.086l0.69-0.949l-0.116-1.497l-0.373-0.604l0.058-0.978l1.352-3.311l0.057-1.898l0.405-1.813l0.402-1.007   l-0.03-1.15l-0.573-0.575l0.027-0.806l1.267-0.748l1.352-0.287l0.634-0.548l0.058-0.806l1.093-1.927l1.123-1.554l0.375-0.92   l-0.433-1.18l-0.462-0.518l-0.027-1.841l0.52-0.26l0.486-0.662l0.231-0.979l0.547-0.287l0.604-1.323l0.834-0.633l0.893,0.402   l0.375,0.432l0.517-0.087l0.604-0.546l-0.486-0.834l0.459-0.431v-0.433l0.202-0.431l-0.634-1.007l0.402-0.259l1.15,0.029   l0.864-0.461l1.324,0.345l0.805,0.547l0.922,0.087l0.517,0.431l0.402-0.144l0.376,0.23v-0.978l-0.433-0.632l0.114-1.238   l0.633-0.346l-0.201-0.833l-0.633-0.346L52.458,7.1l0.922,0.288l0.892-0.172l0.299-0.148l0.65,0.781l1.036,0.517l1.409,1.641   l1.038,0.776l1.553,0.116l0.604,0.374l0.547,0.144l0.777,0.892l0.288,0.748l0.346,0.058l0.288-0.086l0.688,0.949l0.546,0.058   l0.375,0.575l-0.293,0.721l0.216,1.155l-0.359,0.91l0.086,0.793l1.052,0.072l0.245,0.924l-0.375,0.593l0.13,1.097l0.446,0.65   l0.264,1.431l-0.201,0.661l0.172,0.605v1.554l-0.259,0.575l0.402,1.15l0.748,0.26l0.69,1.467l0.447,0.483l-0.042,0.867l-0.03-0.034   l-0.514,0.363l-0.756-0.061l-0.451-0.543l-0.938,0.604l-0.633-0.363l-0.333,0.665l-0.663-0.272l-0.304-0.665l-0.634,0.786   l-0.484-0.876l-0.422,0.332l-0.09,0.764l-0.271,0.632l-0.587,0.135l-0.359-0.437l-0.529-0.181l0.496,0.964l0.529,0.362   l-0.663,0.602l-0.678-0.045l-0.602,0.332l0.738,0.33l-0.048,0.467l-0.301,0.09l-0.166-0.271l-0.479-0.241l-0.256,0.286l0.345,0.572   l0.482,0.015l0.383,0.484l-0.241,0.454l-0.484,1.39l0.184,0.573l-0.966,0.181l0.782,0.605l0.636,0.121l0.241,0.513l-0.481,0.181   l0.451,0.635h0.574l-0.785,0.996l-0.514,0.031l-0.574,0.694l0.122,1.298l-0.785,1.329l-0.515-0.031l-0.814,0.786l-0.423-0.544   l-0.121,0.694l0.303,0.726l-0.966,0.544l-0.396,0.815l-0.481-0.03l-0.09-0.575h-0.606l-0.36,0.816v0.906l-0.544,0.484l-0.333-0.514   h-0.333l-0.211,0.846l-0.36,0.091l-0.335-0.422L50.9,49.511l-0.241,0.665l0.542,0.122l-0.06,0.452l-1.088,0.937l-0.693-0.183   l-0.211,0.423l0.322,0.689l-0.648,0.964l-1.157,0.195l-0.634-0.225l0.919,1.159l0.109,0.992l-0.211,0.303l0.151,0.906l-0.211,1.177   l0.604,0.635l-0.092,0.785l-0.512-0.454l-0.182,0.242l0.241,1.178l-0.604,0.755l0.604,0.242v0.483l-0.362,0.211l0.422,0.875   l-0.544,0.695l0.455,0.483l0.393,0.605l0.544,0.12v0.755l0.393-0.241l0.422,0.725l0.693-0.845l0.544,0.453l0.182,0.694l1.421,1.087   L52.2,68.025l1.177,0.694v0.604l0.785,0.755l-0.514,1.208l-0.996,1.088l-0.273,0.814l-1.086,0.272l-0.666-0.363l0.092-0.513   l-0.906-0.333L49.42,71.86l-0.029,0.483l-0.482,0.031l-0.333-0.363L47.88,71.86l-0.271,0.515l-0.606,0.181l-0.33-0.333   l-0.574,0.755l-0.665-0.332l-0.571,0.241l0.027,0.302l1.209,0.122l0.304,0.241l0.089-0.393l1.057-0.03l0.514,0.332l0.848,0.151   l0.512,0.694l0.634-0.363l0.395,0.181l0.693-0.392l0.966,0.272l0.484,0.422l0.09,0.755l-0.544,0.453h-0.542L50.9,76.693   l-0.452-0.031l0.149-0.724l-0.271-0.363l-0.303,0.424l0.122,0.513l-0.544,0.06l-0.545,0.604l-0.089,0.815l-0.666-0.513l0.03,0.513   l-0.452,0.423l-0.122-0.181h-0.422l-0.453,0.542l0.664,0.091l0.785,0.816l-1.479,0.06l1.178,0.423l0.06,0.484l-0.423,0.905   l0.845,0.785l-0.934,0.181l-0.877-0.332l0.484,0.754l-0.393,0.694l0.874,0.544l-0.695,0.634l0.636,0.815l-0.665,0.755l-0.09,0.815   l0.693,0.605l-0.36,0.635l-0.151,1.964l-0.634,0.663l-0.273,1.572l-0.877,1.056l-0.422-0.544l-0.726-0.332l-0.875,0.483   l-1.451-0.241l-0.211-0.574l-0.271,1.269l-1.239,0.15l-0.542,1.299l0.452,0.393l0.06,0.635l-0.785,0.725l-0.996-0.363l-2.024,0.544   h-0.785l-0.423-0.393l0.455-0.725l-0.362-1.872l-0.815-0.242l-0.122-0.725l-0.544-0.333l0.151-0.422l0.996-0.122l0.574-1.085   l-0.24-0.968l-0.848,0.484l-0.756-0.756l-0.211-0.754l-0.814-0.333l-0.092-1.117l-0.723-1.479l-0.363-0.302l-0.395-1.034   l-0.664-0.165l-0.449-0.648l0.36-0.376l0.106-0.873l-0.243-0.618l0.137-0.632l0.798-0.662l-0.209-0.423l-0.664-0.39l0.182-0.393   l-0.377-0.016l-0.105,0.617l0.542,0.573l-0.874,0.376l0.121-0.842l-0.211-0.302l-0.574-0.302l-0.074-1.294l-0.315-0.467   l-0.151-1.717l0.618-0.361L28.922,75.963L28.922,75.963z M52.344,73.602l0.589,0.939l0.318,0.261l0.015-0.982l0.777-0.693   l0.016-0.649h-0.952L52.344,73.602L52.344,73.602z M29.339,81.627l-0.052,0.57l0.412-0.021l0.158-0.672L29.339,81.627   L29.339,81.627z M55.847,79.117l0.331,0.665l0.417-0.521l-0.417-0.345L55.847,79.117L55.847,79.117z M56.147,82.813l0.276,0.375   l0.432-0.419l0.705-0.202l-0.174-0.275l-0.819,0.029L56.147,82.813L56.147,82.813z M53.397,88.98l0.922-0.26l0.187-0.479   l-0.273-0.202l0.144-0.491l0.922-0.722l0.114-0.521l0.579-0.693l-0.087-0.36l-0.564-0.506l0.318-0.678l0.087-0.447l0.33-0.303   l-0.459-0.246l-0.42,0.246l-0.85-0.015l-0.532,0.678l-0.375,0.708l-0.534,0.563l0.246,0.909l-0.288,0.188l0.793,1.155l0.314-0.116   l-0.186,0.664l-0.463,0.579L53.397,88.98L53.397,88.98z M47.442,91.367l0.114,0.749v0.545l0.261,0.26l0.286-0.691l0.432-1.266   l0.145-1.323l0.402-1.353l0.145-1.18l-0.433-0.461l-0.489,0.749l0.116,0.346l-0.258,1.179l-0.433,0.288L47.442,91.367z"></path></g><g display="none"><path display="inline" d="M62.034,57.232l0.689-0.061c0.035,0.278,0.111,0.503,0.23,0.682c0.119,0.178,0.303,0.321,0.556,0.431   c0.253,0.109,0.536,0.163,0.85,0.163c0.279,0,0.525-0.04,0.739-0.123c0.215-0.084,0.374-0.197,0.479-0.34   c0.104-0.146,0.158-0.305,0.158-0.475c0-0.175-0.052-0.326-0.153-0.457c-0.1-0.13-0.266-0.239-0.499-0.325   c-0.148-0.06-0.474-0.15-0.984-0.27c-0.509-0.123-0.866-0.237-1.067-0.347c-0.266-0.138-0.464-0.31-0.595-0.516   c-0.127-0.205-0.191-0.434-0.191-0.688c0-0.278,0.081-0.541,0.237-0.782c0.157-0.244,0.391-0.429,0.693-0.556   c0.307-0.125,0.645-0.188,1.02-0.188c0.409,0,0.769,0.065,1.084,0.199c0.314,0.13,0.556,0.326,0.724,0.582   c0.169,0.257,0.261,0.548,0.271,0.872l-0.705,0.053c-0.034-0.349-0.164-0.615-0.382-0.792c-0.219-0.178-0.536-0.268-0.963-0.268   c-0.443,0-0.766,0.082-0.968,0.243c-0.203,0.163-0.308,0.358-0.308,0.586c0,0.2,0.072,0.363,0.214,0.491   c0.144,0.129,0.511,0.261,1.108,0.395c0.594,0.137,1.003,0.253,1.226,0.353c0.322,0.15,0.559,0.337,0.712,0.565   c0.154,0.228,0.23,0.49,0.23,0.788c0,0.294-0.084,0.572-0.253,0.833c-0.168,0.261-0.409,0.464-0.729,0.609   c-0.313,0.144-0.67,0.216-1.064,0.216c-0.501,0-0.92-0.072-1.261-0.218c-0.337-0.146-0.604-0.366-0.796-0.661   C62.146,57.936,62.042,57.603,62.034,57.232L62.034,57.232z M68.408,59.012l-1.467-5.538h0.751l0.842,3.628   c0.089,0.381,0.164,0.758,0.233,1.134c0.142-0.591,0.223-0.931,0.25-1.023l1.053-3.739h0.885l0.794,2.802   c0.194,0.695,0.34,1.349,0.428,1.959c0.069-0.349,0.162-0.751,0.276-1.205l0.866-3.557h0.739l-1.518,5.538h-0.708l-1.165-4.218   c-0.1-0.354-0.156-0.57-0.176-0.651c-0.058,0.255-0.11,0.471-0.162,0.651l-1.176,4.218H68.408L68.408,59.012z M74.756,59.012   v-5.538h4.002v0.654h-3.271v1.694h3.065v0.649h-3.065v1.885h3.402v0.655H74.756L74.756,59.012z M79.899,59.012v-5.538h1.907   c0.43,0,0.76,0.027,0.985,0.081c0.317,0.071,0.59,0.205,0.812,0.395c0.29,0.25,0.514,0.563,0.654,0.946   c0.146,0.385,0.219,0.824,0.219,1.315c0,0.421-0.05,0.793-0.148,1.119c-0.097,0.324-0.224,0.594-0.375,0.807   c-0.154,0.213-0.322,0.381-0.506,0.502c-0.18,0.122-0.402,0.216-0.658,0.278c-0.263,0.062-0.558,0.096-0.891,0.096H79.899   L79.899,59.012z M80.631,58.357h1.184c0.364,0,0.652-0.033,0.858-0.099c0.206-0.071,0.375-0.165,0.498-0.29   c0.172-0.172,0.311-0.406,0.407-0.699c0.095-0.295,0.145-0.649,0.145-1.067c0-0.58-0.097-1.024-0.288-1.334   c-0.187-0.312-0.42-0.52-0.692-0.626c-0.195-0.075-0.511-0.113-0.947-0.113h-1.164V58.357L80.631,58.357z M85.499,59.012v-5.538   h4.004v0.654H86.23v1.694h3.066v0.649H86.23v1.885h3.403v0.655H85.499L85.499,59.012z M90.637,59.012v-5.538h0.751l2.907,4.348   v-4.348H95v5.538h-0.751l-2.911-4.352v4.352H90.637z"></path></g><g><path fill="none" stroke="#4D4D4D" stroke-width="0.5" stroke-linecap="round" stroke-linejoin="round" stroke-miterlimit="10" d="   M35.333,96.5c0.003,0,0.233,0.27-0.126,0.145c-0.291-1.012,0.279-1.603-0.207-2.636c-0.079-0.167-0.796-0.873-0.796-0.871   c-0.239-1.106,0.167-0.414,0.467-0.966c0.354-0.653,1.455-0.969,0.504-2.016c0.05,0.055-1.099-0.083-1.305-0.201   c-0.414-0.237-0.502-0.68-0.562-1.096c-1.674-0.227-1.576-4.707-3.32-4.207c-0.56-1.193,0.547-2.053,0.37-3.288   c0.777-0.065,1.018-0.604,0.783-1.343c-0.214-0.146-0.867-0.435-1.107-0.503c0.056,0.437-0.12,0.992-0.063,1.424   c-1.273-0.812-1.888-3.477-2.075-4.915c0.833-0.072,1.666,0.438,2.274,0.969c0.66-1.339-1.831-4.807-0.195-5.019   c-0.303-2.044,0.748-1.137,1.732-1.963c0.706-0.593,1.069-2.34-0.182-2.37c0.055-1.043-2.079-6.048,0.782-4.834   c0.107-0.906,0.491-1.774,0.63-2.686c-1.307-0.538-2.294-1.584-2.613-2.817c-0.208-0.804-0.079-1.838-0.157-2.674   c-0.062-0.658-0.572-1.975-0.52-2.463c0.052-0.489,0.766-0.628,0.827-1.13c0.056-0.453-0.188-0.822-0.188-1.208   c0.003-0.762-0.04-1.748-0.112-2.471c-0.119-1.181-0.797-3.562,0.988-4.027c1.37-0.357,2.858,1.441,3.545-0.823   c0.288-0.95-0.271-1.276-0.17-2.175c0.074-0.667,0.569-1.673,0.796-2.342c0.586-1.736,2.915-7.201,1.182-8.468   c0.156,0.028,0.301,0.065,0.431,0.083c-1.667-1.221,1.562-1.49,2.354-2.639c0.201-0.292-0.139-0.808,0.06-1.096   c0.287-0.419,1-0.495,1.312-0.896c0.497-0.64,1.497-2.623,1.664-3.476c0.44-2.247-1.39-2.72,0.285-4.708   c0.562-0.667,2.637-3.876,3.413-1.477c1.374-0.773,0.365-1.986,0.49-3.128c0.124-0.069,0.33-0.116,0.459-0.174   c-0.19-0.207-0.246-0.616-0.517-0.836c0.493-0.628,1.353-0.641,2.07-0.404c0.183-0.197,0.465-0.311,0.639-0.471   c0.412,0.395,1.844,1.505,2.482,1.704c1.572,0.487,2.275-1.564,0.984-2.338c0.312-0.244,0.387-0.7,0.674-0.955   c-1.863-0.859-0.011-1.73,1.017-1.756c0.075-0.002,1.456,0.34,1.5,0.375c0.495,0.395,0.156,0.591,0.491,1.003   c0.892,1.097,2.228,3.985,3.967,2.192c0.781,1.116,1.387,1.748,2.509,2.483c0.722,0.473,2.1,0.89,2.167,1.829   c0.041,0.574-0.574,0.402-0.675,0.955c-0.11,0.609,0.104,0.753,0.225,1.383c0.04,0.209-0.596,0.33-0.364,0.662   c0.133,0.191,0.597,0.291,0.635,0.366c0.317,0.619,0.71,0.037,0.889,1.129c0.074,0.456-0.531,0.882-0.517,1.33   c0.021,0.644,0.492,1.073,0.637,1.671c0.284,1.177,0.221,2.43,0.362,3.5c0.112,0.844-0.007,0.834,0.309,1.545   c0.213,0.479,0.783,0.826,1.005,1.292c0.421,0.884,0.629,2.601-0.942,2.139c-0.068-0.144-0.077-0.288-0.15-0.427   c-0.444,0.371-0.848,0.64-1.38,0.934c-0.462-0.535-0.488-0.583-1.032-0.171c-0.183-0.253-0.663-0.397-0.837-0.808   c-0.145,0.263-0.659,0.587-0.796,0.861c-0.072-0.248-0.287-0.496-0.33-0.815c-0.311,0.749-0.645,1.402-0.566,2.165   c-0.581-0.016-0.731,0.195-1.241-0.203c0.06,0.269-0.091,0.674-0.046,0.954c-0.263,0.042-0.519,0.213-0.801,0.229   c-0.018,0.572-0.518,0.814-0.528,1.304c-0.01,0.474,0.489,0.692,0.466,1.046c-0.035,0.529-0.36,1.543-0.268,2.121   c1.059,0.822,0.264,3.482,1.793,2.854c-0.299,1.083-1.367,1.82-2.108,2.516c-0.319,0.3-1.479,1.419-1.565,1.94   c-0.228-0.301-0.43-0.114-0.51-0.76c-0.521,1.836-0.743,1.66-2.129,2.47c-0.223-0.083-0.235-0.146-0.467-0.166   c-0.254,0.519-0.383,1.048-0.392,1.62c-0.715-0.035-1.286,0.329-1.503,1.013c-0.944-0.73-1.315,0.122-1.284,0.983   c0.201,0.017,0.432,0.059,0.632,0.058c-0.691,0.756-1.695,0.811-2.453,1.504c-0.285,0.261,0.021,0.884-0.404,1.267   c-0.163,0.147-1.225,0.088-1.449,0.067c1.562,1.209,0.178,3.273,0.661,4.908c-0.003,0.034-0.152-0.413-0.153-0.416   c1.172,0.242-0.388,5.129-0.329,6.449c1.081-0.145,1.413,1.229,1.768,2.016c0.079-0.646,0.401-1.094,0.991-1.145   c-0.137-0.107-0.353-0.399-0.437-0.459c0.257,0.07,0.718,0.348,0.97,0.479c0.097,1.087,1.685,2.649,2.662,2.996   c-0.072,0.201-0.035,0.598-0.129,0.825c3.296,0.677-3.381,6.395-3.209,3.341c-0.173-0.114-0.777-0.332-0.961-0.354   c-0.13,0.275-0.549,0.498-0.676,0.817c-0.906-0.609-2.477-1.092-3.167,0.009c1.109,0.83,2.363,0.451,3.496,0.959   c0.371,0.167,0.688,0.942,1.033,1.007c0.714,0.134,0.847-0.576,1.463-0.646c1.83-0.205,1.484,0.465,1.008,1.333   c-0.421,0.767-2.319,2.356-1.946,0.701c-0.438,0.544-0.835,1.149-1.086,1.781c-0.967-0.328-1.522,0.293-1.922,1.209   c0.234,0.06,0.618,0.419,0.807,0.479c-1.199,0.941-0.163,2.348,0.463,3.308c-0.553-0.032-0.966-0.004-1.452-0.283   c0.224,1.679-0.469,3.226-0.501,4.983c-0.02,1.101,0.108,1.367-0.168,2.67c-0.203,0.96-0.4,1.986-0.391,2.971   c-0.618,0.072-1.213-0.238-1.771-0.178c-0.505,0.055-0.982,0.5-1.708,0.54c-0.745,0.041-0.514-0.572-1.374-0.377   c-0.158,0.036-1.164,0.779-1.256,1.037c-0.602,1.684,1.124,1.711-1.032,2.338c-0.839,0.244-2.767,0.952-3.117,0.167   c-0.084,0.161-0.156,0.327-0.217,0.499"></path><path fill="none" stroke="#4D4D4D" stroke-width="0.5" stroke-linecap="round" stroke-linejoin="round" stroke-miterlimit="10" d="   M54.167,83.333c-0.11,0.236-0.494,1.043-0.351,1.499c-1.83,0.871-0.385,2.089-0.454,3.639c2.283,1.151,1.896-4.186,2.112-5.116   c-0.52-0.021-0.852,0.224-1.142,0.645"></path></g></svg></g></g></svg>